<svg width="199" height="84" viewBox="0 0 199 84" fill="none" xmlns="http://www.w3.org/2000/svg">
<path id="Ellipse 6" d="M197.946 19.7543C198.975 24.3347 197.324 29.3619 193.302 34.5692C189.282 39.7733 182.938 45.0948 174.728 50.2214C158.312 60.4719 134.533 69.8828 107.283 76.0052C80.0332 82.1276 54.514 83.7929 35.291 81.5496C25.6771 80.4277 17.6665 78.3313 11.8068 75.3469C5.94349 72.3607 2.30082 68.5229 1.27171 63.9425C0.242605 59.3621 1.8935 54.3349 5.91588 49.1276C9.93579 43.9235 16.2798 38.6019 24.4898 33.4754C40.9057 23.2249 64.6847 13.8139 91.9345 7.69154C119.184 1.56914 144.704 -0.0961384 163.927 2.14714C173.54 3.26906 181.551 5.36543 187.411 8.34983C193.274 11.3361 196.917 15.1739 197.946 19.7543Z" stroke="#98887A" stroke-opacity="0.6"/>
</svg>
